<svg width="24" height="28" viewBox="0 0 24 28" fill="none" xmlns="http://www.w3.org/2000/svg">
	<path d="M11 7.22937H4C3.46957 7.22937 2.96086 7.44008 2.58579 7.81516C2.21071 8.19023 2 8.69894 2 9.22937V23.2294C2 23.7598 2.21071 24.2685 2.58579 24.6436C2.96086 25.0187 3.46957 25.2294 4 25.2294H18C18.5304 25.2294 19.0391 25.0187 19.4142 24.6436C19.7893 24.2685 20 23.7598 20 23.2294V16.2294" stroke="black" stroke-width="2" stroke-linecap="round" stroke-linejoin="round"/>
	<path d="M16.4387 2.55706C16.5883 2.01472 16.9473 1.55403 17.4366 1.27636C17.9259 0.998682 18.5055 0.926756 19.0478 1.0764C19.5902 1.22605 20.0509 1.58501 20.3285 2.07432C20.6062 2.56364 20.6781 3.14321 20.5285 3.68555L16.9549 16.6366L13.9696 19.4805L12.8651 15.5081L16.4387 2.55706Z" stroke="black" stroke-width="2" stroke-linecap="round" stroke-linejoin="round"/>
	<path d="M8 19.2294H13" stroke="black" stroke-width="2" stroke-linecap="round"/>
</svg>
