<svg width="24" height="24" viewBox="0 0 24 24" fill="none" xmlns="http://www.w3.org/2000/svg">
	<g clip-path="url(#clip0_191_9640)">
		<path d="M7.11111 1H3.44444C2.79614 1 2.17438 1.25754 1.71596 1.71596C1.25754 2.17438 1 2.79614 1 3.44444V7.11111M23 7.11111V3.44444C23 2.79614 22.7425 2.17438 22.284 1.71596C21.8256 1.25754 21.2039 1 20.5556 1H16.8889M16.8889 23H20.5556C21.2039 23 21.8256 22.7425 22.284 22.284C22.7425 21.8256 23 21.2039 23 20.5556V16.8889M1 16.8889V20.5556C1 21.2039 1.25754 21.8256 1.71596 22.284C2.17438 22.7425 2.79614 23 3.44444 23H7.11111" stroke="black" stroke-width="2" stroke-linecap="round" stroke-linejoin="round"/>
	</g>
	<defs>
		<clipPath id="clip0_191_9640">
			<rect width="24" height="24" fill="white"/>
		</clipPath>
	</defs>
</svg>
