<svg width="33" height="33" viewBox="0 0 33 33" fill="none" xmlns="http://www.w3.org/2000/svg">
<g clip-path="url(#clip0_270_11091)">
<path d="M16.4991 0C7.40248 0 0 7.4007 0 16.4991C0 19.0314 0.57244 21.4299 1.59605 23.5752C2.01691 24.4598 2.51267 25.2997 3.07798 26.0861L5.10738 24.0585L5.87955 23.2864L19.7608 9.40513H10.8122L7.99097 12.2263L12.945 12.2281L5.32672 19.8464C5.32672 19.8464 5.32315 19.8517 5.31959 19.8535C5.29106 19.8838 5.26252 19.9123 5.23221 19.9409C5.23042 19.9427 5.22686 19.9444 5.22507 19.948C4.99681 20.1513 4.69543 20.2761 4.36374 20.2761C4.29954 20.2761 4.23891 20.2726 4.17828 20.2619C4.17114 20.2619 4.16401 20.2619 4.15688 20.2583C3.65042 20.1781 3.24204 19.8 3.11543 19.3096C3.10473 19.265 3.09581 19.2186 3.08868 19.1723C3.08868 19.1687 3.08868 19.1651 3.08689 19.1616C2.9157 18.3002 2.82475 17.4086 2.82475 16.4973C2.82297 8.95753 8.95752 2.82118 16.4991 2.82118C24.0407 2.82118 30.1752 8.95752 30.1752 16.4991C30.1752 24.0407 24.0407 30.1753 16.4991 30.1753C15.8001 30.1753 15.1117 30.1235 14.4412 30.0201C14.434 30.0201 14.4269 30.0201 14.4198 30.0165C13.8063 29.9185 13.3373 29.3852 13.3373 28.7433C13.3373 28.4133 13.4621 28.112 13.6654 27.8837L21.1321 20.417V25.371H21.1357L23.9569 22.5499V13.6012L10.1559 27.4022L9.38373 28.1744L7.34007 30.218C8.15325 30.762 9.01459 31.2345 9.91872 31.6286C11.9356 32.5096 14.163 33 16.4991 33C25.5975 33 32.9982 25.5975 32.9982 16.5009C32.9982 7.40427 25.5975 0 16.4991 0Z" fill="#1D1D1B"/>
<path d="M23.9551 11.4003V9.40479H21.9578L6.04896 25.3136L4.0481 27.3145C4.35661 27.6711 4.68117 28.01 5.01999 28.3381C5.35882 28.668 5.71013 28.9819 6.07571 29.2779L8.08371 27.2699L23.9533 11.4003H23.9551Z" fill="#1D1D1B"/>
</g>
<defs>
<clipPath id="clip0_270_11091">
<rect width="32.9982" height="33" fill="white"/>
</clipPath>
</defs>
</svg>
