<svg width="189" height="45" viewBox="0 0 189 45" fill="none" xmlns="http://www.w3.org/2000/svg">
<g clip-path="url(#clip0_191_8132)">
<path d="M12.7334 26.8031C12.7334 25.657 11.9196 24.9023 10.2583 24.5109L6.75811 23.6662C3.50014 22.8805 1.08412 21.1009 1.08412 17.6008C1.08412 13.7684 4.37306 11.3833 8.65883 11.3833C13.2459 11.3833 15.6901 13.9176 16.5349 16.3026L13.0037 18.0823C12.6715 16.694 11.3452 15.0045 8.65883 15.0045C6.33573 15.0045 5.03761 16.0915 5.03761 17.5078C5.03761 18.7159 5.97249 19.4086 7.42267 19.7408L11.3762 20.7067C14.9383 21.5824 16.777 23.7253 16.777 26.62C16.777 29.9709 14.1216 33.0487 8.35754 33.0487C3.5283 33.0487 0.872923 30.3032 0 28.0083L3.3509 26.0766C3.92534 27.9181 6.00628 29.3064 8.45046 29.3064C11.6803 29.3064 12.7362 28.0702 12.7362 26.8031H12.7334Z" fill="black"/>
<path d="M18.9791 24.9332C18.9791 20.104 22.6594 16.8151 27.2465 16.8151C31.0479 16.8151 33.5541 18.8369 34.6382 21.4613L31.3182 23.1818C30.7748 21.6443 29.4175 20.3462 27.2437 20.3462C24.5883 20.3462 22.8087 22.3088 22.8087 24.9332C22.8087 27.5576 24.5883 29.5203 27.2155 29.5203C29.2683 29.5203 30.6847 28.3433 31.2591 26.9241L34.579 28.5826C33.433 31.0578 30.8987 33.0796 27.2155 33.0796C22.6904 33.0796 18.9791 29.8498 18.9791 24.9332Z" fill="black"/>
<path d="M36.6008 24.9332C36.6008 20.104 40.2812 16.8151 45.0203 16.8151C49.7594 16.8151 53.4398 20.104 53.4398 24.9332C53.4398 29.7625 49.7876 33.0796 45.0203 33.0796C40.253 33.0796 36.6008 29.7597 36.6008 24.9332ZM45.0203 29.5203C47.6447 29.5203 49.6074 27.5886 49.6074 24.9332C49.6074 22.2779 47.6447 20.3462 45.0203 20.3462C42.3959 20.3462 40.4332 22.3088 40.4332 24.9332C40.4332 27.5576 42.3959 29.5203 45.0203 29.5203Z" fill="black"/>
<path d="M56.4274 27.1663V17.0883H60.2007V26.2004C60.2007 28.1913 61.5889 29.4584 63.3376 29.4584C65.2383 29.4584 66.5054 28.0702 66.5054 26.2004V17.0883H70.2787V29.6724L71.3657 32.7812H67.201L66.6265 31.1508C65.9338 32.0547 64.4836 33.0515 62.2507 33.0515C58.7195 33.0515 56.4274 30.3961 56.4274 27.1663Z" fill="black"/>
<path d="M75.8007 20.5261H73.1454V17.0851H75.8908V13.2217H79.5712V17.0851H83.4346V20.5261H79.5712V29.1568H83.4937V32.778H75.7979V20.5261H75.8007Z" fill="black"/>
<path d="M87.0248 17.088H90.8262V19.7743L96.4101 16.7275V20.7402L90.8262 23.6067V32.7809H87.0248V17.0908V17.088Z" fill="black"/>
<path d="M182.174 6.20385C178.055 2.24171 172.642 0.0407858 166.928 -6.10352e-05H166.767C160.933 -6.10352e-05 155.424 2.24171 151.253 6.30957C150.837 6.71324 150.441 7.13131 150.059 7.56141C149.189 8.54894 148.415 9.60135 147.742 10.709C147.867 10.8628 147.99 11.019 148.11 11.1776C148.867 12.1843 149.525 13.2728 150.066 14.4213C150.681 13.107 151.457 11.8623 152.382 10.7114C152.603 10.4375 152.831 10.1708 153.067 9.9089C154.213 10.834 155.446 11.6365 156.753 12.3068C156.073 14.9283 155.671 17.8116 155.573 20.779C155.573 20.8102 155.568 20.8414 155.568 20.8727H151.765C151.796 21.2739 151.813 21.6776 151.815 22.0861C151.817 22.5906 151.801 23.0928 151.765 23.5878H155.568C155.568 23.6166 155.57 23.6479 155.57 23.6767C155.669 26.6465 156.073 29.5322 156.753 32.1536C155.446 32.824 154.213 33.6265 153.067 34.5516C152.831 34.2921 152.605 34.0253 152.389 33.7562C151.462 32.6077 150.686 31.3631 150.071 30.0488C149.53 31.1997 148.874 32.2858 148.117 33.2925C147.997 33.4511 147.877 33.6073 147.75 33.761C148.422 34.8687 149.198 35.9211 150.071 36.9087C150.445 37.3339 150.839 37.7472 151.25 38.1485C155.424 42.2211 160.933 44.4605 166.767 44.4605H166.928C172.642 44.4197 178.055 42.2187 182.174 38.2566C186.576 34.0278 189 28.3356 189 22.2302C189 16.1248 186.576 10.4327 182.174 6.20385ZM155.047 8.01072C156.474 6.83097 158.053 5.88429 159.737 5.18989C158.913 6.45374 158.182 7.95306 157.567 9.66142C156.685 9.18086 155.842 8.62823 155.047 8.01072ZM155.047 36.4497C155.842 35.8322 156.685 35.2796 157.567 34.799C158.182 36.5074 158.913 38.0067 159.737 39.2706C158.053 38.5762 156.474 37.6295 155.047 36.4497ZM165.41 40.6089C165.143 40.5897 164.879 40.5632 164.614 40.532C162.844 39.4315 161.217 37.0144 160.047 33.6625C161.77 33.021 163.564 32.6366 165.41 32.5164V40.6089ZM165.41 29.7941C163.3 29.9142 161.248 30.3347 159.278 31.0507C158.711 28.7345 158.372 26.1996 158.286 23.5878H165.41V29.7941ZM165.41 20.8727H158.286C158.372 18.2609 158.711 15.726 159.278 13.4097C161.248 14.1257 163.303 14.5462 165.41 14.6664V20.8727ZM165.41 11.944C163.564 11.8239 161.77 11.4395 160.047 10.7979C161.217 7.44608 162.844 5.0289 164.614 3.92844C164.879 3.89721 165.143 3.87078 165.41 3.85155V11.944ZM185.146 20.8727H177.969C177.873 17.8356 177.462 14.8874 176.758 12.2155C178.043 11.5404 179.257 10.7378 180.384 9.81519C183.19 12.8811 184.848 16.7303 185.146 20.8727ZM178.389 7.93143C177.613 8.54173 176.794 9.08956 175.934 9.57011C175.326 7.9002 174.605 6.43211 173.795 5.18989C175.441 5.86987 176.989 6.79012 178.389 7.93143ZM168.127 3.85396C168.392 3.87318 168.658 3.89961 168.923 3.92844C170.679 5.0265 172.298 7.42205 173.464 10.7306C171.753 11.3914 169.965 11.7927 168.127 11.9296V3.85396ZM168.127 14.6543C170.232 14.515 172.279 14.0753 174.242 13.3424C174.819 15.6779 175.163 18.2344 175.251 20.8727H168.127V14.6543ZM168.127 23.5878H175.251C175.163 26.226 174.819 28.7825 174.242 31.118C172.279 30.3852 170.234 29.9455 168.127 29.8061V23.5878ZM168.918 40.532C168.656 40.5608 168.392 40.5873 168.127 40.6065V32.5308C169.965 32.6702 171.753 33.0715 173.464 33.7298C172.298 37.0384 170.679 39.4339 168.918 40.532ZM173.793 39.2706C174.605 38.0283 175.326 36.5603 175.934 34.8903C176.794 35.3709 177.613 35.9187 178.389 36.529C176.989 37.6703 175.441 38.593 173.793 39.2706ZM180.384 34.6453C179.257 33.7226 178.043 32.9201 176.758 32.2449C177.462 29.573 177.873 26.6249 177.969 23.5878H185.146C184.848 27.7277 183.19 31.5793 180.384 34.6453Z" fill="black"/>
<path d="M129.806 0C117.549 0 107.575 9.97143 107.575 22.2303C107.575 25.6422 108.347 28.8739 109.726 31.7644C110.293 32.9562 110.961 34.0879 111.723 35.1475L114.457 32.4156L115.497 31.3752L134.2 12.6721H122.143L118.342 16.4733L125.017 16.4757L114.753 26.7403C114.753 26.7403 114.748 26.7475 114.743 26.7499C114.704 26.7907 114.666 26.8292 114.625 26.8676C114.623 26.87 114.618 26.8724 114.616 26.8772C114.308 27.1511 113.902 27.3193 113.455 27.3193C113.369 27.3193 113.287 27.3145 113.205 27.3001C113.196 27.3001 113.186 27.3001 113.176 27.2953C112.494 27.1872 111.944 26.6778 111.773 26.017C111.759 25.957 111.747 25.8945 111.737 25.832C111.737 25.8272 111.737 25.8224 111.735 25.8176C111.504 24.6571 111.381 23.4557 111.381 22.2279C111.379 12.069 119.645 3.80116 129.806 3.80116C139.967 3.80116 148.232 12.069 148.232 22.2303C148.232 32.3915 139.967 40.657 129.806 40.657C128.864 40.657 127.936 40.5873 127.033 40.448C127.023 40.448 127.014 40.448 127.004 40.4432C126.178 40.311 125.546 39.5926 125.546 38.7276C125.546 38.2831 125.714 37.877 125.988 37.5695L136.048 27.5091V34.184H136.053L139.854 30.3828V18.3258L121.259 36.9207L120.219 37.9611L117.465 40.7147C118.561 41.4475 119.721 42.0843 120.94 42.6153C123.657 43.8022 126.658 44.463 129.806 44.463C142.065 44.463 152.036 34.4891 152.036 22.2327C152.036 9.97624 142.065 0 129.806 0Z" fill="black"/>
<path d="M139.852 15.3606V12.672H137.161L115.726 34.1069L113.03 36.8028C113.445 37.2834 113.883 37.7399 114.339 38.182C114.796 38.6265 115.269 39.0494 115.762 39.4483L118.467 36.7428L139.849 15.3606H139.852Z" fill="black"/>
</g>
<defs>
<clipPath id="clip0_191_8132">
<rect width="189" height="44.463" fill="white"/>
</clipPath>
</defs>
</svg>
