<svg width="126" height="32" viewBox="0 0 126 32" fill="none" xmlns="http://www.w3.org/2000/svg">
<g clip-path="url(#clip0_53_777)">
<path d="M54.2892 4.4652C51.3251 1.61349 47.4289 0.0293991 43.3164 0H43.2006C39.0017 0 35.0363 1.61349 32.0341 4.54129C31.7349 4.83182 31.4496 5.13273 31.1746 5.44228C30.5486 6.15305 29.9918 6.91051 29.5075 7.70774C29.5975 7.81842 29.6857 7.93083 29.7721 8.04496C30.3169 8.76956 30.7907 9.55296 31.1798 10.3796C31.6225 9.43364 32.1811 8.53783 32.8469 7.70947C33.006 7.51232 33.1703 7.32036 33.3398 7.13186C34.1647 7.79767 35.0519 8.37527 35.9926 8.85776C35.5032 10.7445 35.2144 12.8197 35.1435 14.9555C35.1435 14.978 35.1401 15.0004 35.1401 15.0229H32.4025C32.425 15.3117 32.4371 15.6022 32.4388 15.8962C32.4405 16.2594 32.4284 16.6208 32.4025 16.9771H35.1401C35.1401 16.9978 35.1418 17.0203 35.1418 17.0411C35.2127 19.1786 35.5032 21.2555 35.9926 23.1422C35.0519 23.6247 34.1647 24.2023 33.3398 24.8681C33.1703 24.6814 33.0078 24.4894 32.8521 24.2957C32.1846 23.4691 31.626 22.5733 31.1833 21.6273C30.7942 22.4557 30.3221 23.2374 29.7773 23.962C29.6908 24.0761 29.6044 24.1885 29.5127 24.2992C29.9969 25.0964 30.5555 25.8539 31.1833 26.5646C31.4531 26.8707 31.7367 27.1682 32.0324 27.457C35.0363 30.3882 39.0017 32 43.2006 32H43.3164C47.4289 31.9706 51.3251 30.3865 54.2892 27.5348C57.4574 24.4911 59.2023 20.3943 59.2023 16C59.2023 11.6057 57.4574 7.50886 54.2892 4.4652ZM34.7648 5.76567C35.792 4.91656 36.9282 4.23519 38.1405 3.73541C37.5473 4.64505 37.0216 5.72417 36.5789 6.95374C35.9442 6.60787 35.3372 6.21012 34.7648 5.76567ZM34.7648 26.2343C35.3372 25.7899 35.9442 25.3921 36.5789 25.0463C37.0216 26.2758 37.5473 27.355 38.1405 28.2646C36.9282 27.7648 35.792 27.0834 34.7648 26.2343ZM42.2235 29.2278C42.0315 29.214 41.8413 29.195 41.6511 29.1725C40.3765 28.3805 39.2058 26.6407 38.3636 24.2283C39.6035 23.7665 40.8953 23.4898 42.2235 23.4034V29.2278ZM42.2235 21.444C40.7051 21.5305 39.2282 21.8331 37.8102 22.3485C37.402 20.6814 37.1582 18.8569 37.096 16.9771H42.2235V21.444ZM42.2235 15.0229H37.096C37.1582 13.1431 37.402 11.3186 37.8102 9.65154C39.2282 10.1669 40.7068 10.4695 42.2235 10.556V15.0229ZM42.2235 8.59663C40.8953 8.51016 39.6035 8.23346 38.3636 7.77173C39.2058 5.35927 40.3765 3.61954 41.6511 2.8275C41.8413 2.80502 42.0315 2.78599 42.2235 2.77216V8.59663ZM56.4284 15.0229H51.2628C51.1937 12.837 50.8979 10.7151 50.3912 8.79205C51.3164 8.3061 52.1898 7.72849 53.0008 7.06442C55.0207 9.27108 56.214 12.0415 56.4284 15.0229ZM51.5655 5.7086C51.0069 6.14786 50.4172 6.54215 49.7981 6.88802C49.3605 5.68612 48.8417 4.62949 48.2589 3.73541C49.4436 4.22482 50.5573 4.88716 51.5655 5.7086ZM44.1794 2.77389C44.3696 2.78772 44.5616 2.80674 44.7518 2.8275C46.016 3.61781 47.1816 5.34198 48.0203 7.7233C46.789 8.19888 45.5023 8.48768 44.1794 8.58625V2.77389ZM44.1794 10.5473C45.6943 10.447 47.1677 10.1306 48.5806 9.60311C48.9956 11.284 49.2429 13.1241 49.3069 15.0229H44.1794V10.5473ZM44.1794 16.9771H49.3069C49.2429 18.8759 48.9956 20.716 48.5806 22.3969C47.1677 21.8694 45.696 21.553 44.1794 21.4527V16.9771ZM44.7484 29.1725C44.5599 29.1933 44.3696 29.2123 44.1794 29.2261V23.4137C45.5023 23.5141 46.789 23.8029 48.0203 24.2767C47.1816 26.658 46.016 28.3822 44.7484 29.1725ZM48.2572 28.2646C48.8417 27.3705 49.3605 26.3139 49.7981 25.112C50.4172 25.4578 51.0069 25.8521 51.5655 26.2914C50.5573 27.1128 49.4436 27.7769 48.2572 28.2646ZM53.0008 24.9356C52.1898 24.2715 51.3164 23.6939 50.3912 23.208C50.8979 21.2849 51.1937 19.163 51.2628 16.9771H56.4284C56.214 19.9568 55.0207 22.7289 53.0008 24.9356Z" fill="#1D1D1B"/>
<path d="M16.5979 0C7.77646 0 0.5979 7.17683 0.5979 16C0.5979 18.4557 1.15302 20.7817 2.14567 22.8621C2.5538 23.7198 3.03456 24.5344 3.58277 25.297L5.55078 23.3307L6.29959 22.5819L19.7609 9.12062H11.083L8.34714 11.8565L13.1513 11.8582L5.76349 19.246C5.76349 19.246 5.76003 19.2512 5.75657 19.2529C5.7289 19.2823 5.70123 19.31 5.67183 19.3377C5.6701 19.3394 5.66664 19.3411 5.66491 19.3446C5.44356 19.5417 5.15129 19.6628 4.82963 19.6628C4.76738 19.6628 4.70858 19.6593 4.64978 19.6489C4.64286 19.6489 4.63595 19.6489 4.62903 19.6455C4.13789 19.5677 3.74187 19.201 3.61909 18.7255C3.60871 18.6822 3.60006 18.6373 3.59314 18.5923C3.59314 18.5888 3.59314 18.5854 3.59142 18.5819C3.4254 17.7467 3.3372 16.882 3.3372 15.9983C3.33547 8.68655 9.28445 2.73584 16.5979 2.73584C23.9113 2.73584 29.8603 8.68655 29.8603 16C29.8603 23.3134 23.9113 29.2624 16.5979 29.2624C15.92 29.2624 15.2525 29.2123 14.6022 29.112C14.5953 29.112 14.5884 29.112 14.5815 29.1085C13.9866 29.0134 13.5318 28.4963 13.5318 27.8738C13.5318 27.5538 13.6528 27.2616 13.85 27.0402L21.0908 19.7994V24.6035H21.0942L23.8301 21.8677V13.1898L10.4466 26.5733L9.69777 27.3221L7.71593 29.3039C8.50452 29.8314 9.33979 30.2897 10.2166 30.6719C12.1725 31.5262 14.3324 32.0017 16.5979 32.0017C25.4211 32.0017 32.5979 24.8232 32.5979 16.0017C32.5979 7.18029 25.4211 0 16.5979 0Z" fill="#1D1D1B"/>
<path d="M23.8283 11.0558V9.12061H21.8915L6.46387 24.5482L4.52353 26.4885C4.82271 26.8344 5.13745 27.163 5.46603 27.4812C5.79461 27.8011 6.13529 28.1055 6.48981 28.3925L8.43706 26.4453L23.8266 11.0558H23.8283Z" fill="#1D1D1B"/>
<path d="M74.0125 18.7807C74.0125 18.0769 73.5128 17.6134 72.4924 17.373L70.3428 16.8542C68.342 16.3718 66.8582 15.2788 66.8582 13.1292C66.8582 10.7756 68.8781 9.31079 71.5102 9.31079C74.3273 9.31079 75.8284 10.8672 76.3472 12.332L74.1786 13.4249C73.9745 12.5724 73.16 11.5347 71.5102 11.5347C70.0834 11.5347 69.2862 12.2023 69.2862 13.0721C69.2862 13.814 69.8603 14.2395 70.751 14.4435L73.179 15.0367C75.3666 15.5745 76.4959 16.8906 76.4959 18.6683C76.4959 20.7263 74.8651 22.6165 71.3251 22.6165C68.3593 22.6165 66.7285 20.9303 66.1924 19.5209L68.2503 18.3346C68.6031 19.4656 69.8811 20.3181 71.3822 20.3181C73.3658 20.3181 74.0143 19.559 74.0143 18.7807H74.0125Z" fill="#1D1D1B"/>
<path d="M77.8482 17.6325C77.8482 14.6666 80.1085 12.6467 82.9256 12.6467C85.2603 12.6467 86.7994 13.8884 87.4652 15.5002L85.4263 16.5568C85.0925 15.6126 84.259 14.8153 82.9239 14.8153C81.2931 14.8153 80.2002 16.0207 80.2002 17.6325C80.2002 19.2442 81.2931 20.4496 82.9066 20.4496C84.1673 20.4496 85.0372 19.7267 85.39 18.8551L87.4289 19.8737C86.725 21.3938 85.1686 22.6355 82.9066 22.6355C80.1275 22.6355 77.8482 20.6519 77.8482 17.6325Z" fill="#1D1D1B"/>
<path d="M88.6706 17.6325C88.6706 14.6666 90.9308 12.6467 93.8413 12.6467C96.7518 12.6467 99.0121 14.6666 99.0121 17.6325C99.0121 20.5983 96.7691 22.6355 93.8413 22.6355C90.9135 22.6355 88.6706 20.5966 88.6706 17.6325ZM93.8413 20.4496C95.4531 20.4496 96.6585 19.2632 96.6585 17.6325C96.6585 16.0017 95.4531 14.8153 93.8413 14.8153C92.2296 14.8153 91.0242 16.0207 91.0242 17.6325C91.0242 19.2442 92.2296 20.4496 93.8413 20.4496Z" fill="#1D1D1B"/>
<path d="M100.847 19.0038V12.8145H103.164V18.4106C103.164 19.6333 104.017 20.4115 105.091 20.4115C106.258 20.4115 107.036 19.5589 107.036 18.4106V12.8145H109.354V20.5429L110.021 22.4522H107.463L107.111 21.4509C106.685 22.006 105.795 22.6182 104.423 22.6182C102.255 22.6182 100.847 20.9874 100.847 19.0038Z" fill="#1D1D1B"/>
<path d="M112.745 14.9259H111.114V12.8126H112.8V10.4399H115.061V12.8126H117.433V14.9259H115.061V20.2264H117.47V22.4503H112.743V14.9259H112.745Z" fill="#1D1D1B"/>
<path d="M119.638 12.8144H121.973V14.4642L125.402 12.593V15.0573L121.973 16.8178V22.4521H119.638V12.8161V12.8144Z" fill="#1D1D1B"/>
</g>
<defs>
<clipPath id="clip0_53_777">
<rect width="124.804" height="32" fill="white" transform="translate(0.5979)"/>
</clipPath>
</defs>
</svg>
